<mxfile host="app.diagrams.net" modified="2024-06-13T06:14:32.200Z" agent="Mozilla/5.0 (Windows NT 10.0; Win64; x64) AppleWebKit/537.36 (KHTML, like Gecko) Chrome/125.0.0.0 Safari/537.36" etag="ssGYxOl5BqNML1BI-PaP" version="24.5.2" type="github">
  <diagram name="第 1 页" id="CgU5GiZKHllhDWWJ-L2Z">
    <mxGraphModel dx="3147" dy="740" grid="1" gridSize="10" guides="1" tooltips="1" connect="1" arrows="1" fold="1" page="1" pageScale="1" pageWidth="827" pageHeight="1169" math="0" shadow="0">
      <root>
        <mxCell id="0" />
        <mxCell id="1" parent="0" />
        <mxCell id="WIQYE3tA3X634Tk99d2Z-123" value="" style="group" vertex="1" connectable="0" parent="1">
          <mxGeometry x="860" y="1260" width="800" height="520" as="geometry" />
        </mxCell>
        <mxCell id="WIQYE3tA3X634Tk99d2Z-124" value="" style="rounded=0;whiteSpace=wrap;html=1;" vertex="1" parent="WIQYE3tA3X634Tk99d2Z-123">
          <mxGeometry width="800" height="520" as="geometry" />
        </mxCell>
        <mxCell id="WIQYE3tA3X634Tk99d2Z-136" value="" style="rounded=0;whiteSpace=wrap;html=1;" vertex="1" parent="WIQYE3tA3X634Tk99d2Z-123">
          <mxGeometry x="200" y="50" width="400" height="100" as="geometry" />
        </mxCell>
        <mxCell id="WIQYE3tA3X634Tk99d2Z-137" value="nginx" style="rounded=1;whiteSpace=wrap;html=1;" vertex="1" parent="WIQYE3tA3X634Tk99d2Z-123">
          <mxGeometry x="260" y="70" width="120" height="60" as="geometry" />
        </mxCell>
        <mxCell id="WIQYE3tA3X634Tk99d2Z-141" value="nginx" style="rounded=1;whiteSpace=wrap;html=1;" vertex="1" parent="WIQYE3tA3X634Tk99d2Z-123">
          <mxGeometry x="430" y="70" width="120" height="60" as="geometry" />
        </mxCell>
        <mxCell id="WIQYE3tA3X634Tk99d2Z-142" value="NM DC" style="rounded=1;whiteSpace=wrap;html=1;fillColor=#99FF99;" vertex="1" parent="WIQYE3tA3X634Tk99d2Z-123">
          <mxGeometry width="70" height="40" as="geometry" />
        </mxCell>
        <mxCell id="1L4nAjFxOQN-aBNhJyho-1" value="&lt;code&gt;&lt;font style=&quot;font-size: 18px;&quot;&gt;&lt;span class=&quot;n&quot;&gt;api&lt;/span&gt;.&lt;span class=&quot;n&quot;&gt;unifiedcloud&lt;/span&gt;.&lt;span class=&quot;n&quot;&gt;lenovo&lt;/span&gt;.&lt;span class=&quot;n&quot;&gt;com&lt;/span&gt;&lt;/font&gt;&lt;/code&gt;" style="text;html=1;align=center;verticalAlign=middle;whiteSpace=wrap;rounded=0;" parent="1" vertex="1">
          <mxGeometry x="370" y="20" width="60" height="30" as="geometry" />
        </mxCell>
        <mxCell id="1L4nAjFxOQN-aBNhJyho-2" value="" style="rounded=0;whiteSpace=wrap;html=1;" parent="1" vertex="1">
          <mxGeometry x="200" y="80" width="400" height="120" as="geometry" />
        </mxCell>
        <mxCell id="1L4nAjFxOQN-aBNhJyho-3" value="BY F5" style="rounded=1;whiteSpace=wrap;html=1;" parent="1" vertex="1">
          <mxGeometry x="340" y="110" width="120" height="60" as="geometry" />
        </mxCell>
        <mxCell id="1L4nAjFxOQN-aBNhJyho-5" style="edgeStyle=orthogonalEdgeStyle;rounded=0;orthogonalLoop=1;jettySize=auto;html=1;entryX=0.5;entryY=0;entryDx=0;entryDy=0;" parent="1" source="1L4nAjFxOQN-aBNhJyho-1" target="1L4nAjFxOQN-aBNhJyho-3" edge="1">
          <mxGeometry relative="1" as="geometry" />
        </mxCell>
        <mxCell id="WIQYE3tA3X634Tk99d2Z-10" value="" style="group" vertex="1" connectable="0" parent="1">
          <mxGeometry y="280" width="800" height="520" as="geometry" />
        </mxCell>
        <mxCell id="1L4nAjFxOQN-aBNhJyho-6" value="" style="rounded=0;whiteSpace=wrap;html=1;" parent="WIQYE3tA3X634Tk99d2Z-10" vertex="1">
          <mxGeometry width="800" height="520" as="geometry" />
        </mxCell>
        <mxCell id="1L4nAjFxOQN-aBNhJyho-36" value="" style="group" parent="WIQYE3tA3X634Tk99d2Z-10" vertex="1" connectable="0">
          <mxGeometry x="200" y="170" width="500" height="230" as="geometry" />
        </mxCell>
        <mxCell id="1L4nAjFxOQN-aBNhJyho-16" value="" style="rounded=0;whiteSpace=wrap;html=1;" parent="1L4nAjFxOQN-aBNhJyho-36" vertex="1">
          <mxGeometry width="500" height="230" as="geometry" />
        </mxCell>
        <mxCell id="1L4nAjFxOQN-aBNhJyho-23" value="Eureka" style="rounded=1;whiteSpace=wrap;html=1;" parent="1L4nAjFxOQN-aBNhJyho-36" vertex="1">
          <mxGeometry x="370" y="95" width="120" height="60" as="geometry" />
        </mxCell>
        <mxCell id="1L4nAjFxOQN-aBNhJyho-37" style="edgeStyle=orthogonalEdgeStyle;rounded=0;orthogonalLoop=1;jettySize=auto;html=1;entryX=0.5;entryY=0;entryDx=0;entryDy=0;exitX=1;exitY=0.25;exitDx=0;exitDy=0;" parent="1L4nAjFxOQN-aBNhJyho-36" source="1L4nAjFxOQN-aBNhJyho-24" target="1L4nAjFxOQN-aBNhJyho-23" edge="1">
          <mxGeometry relative="1" as="geometry" />
        </mxCell>
        <mxCell id="WIQYE3tA3X634Tk99d2Z-1" style="edgeStyle=orthogonalEdgeStyle;rounded=0;orthogonalLoop=1;jettySize=auto;html=1;exitX=0;exitY=0.5;exitDx=0;exitDy=0;entryX=1;entryY=0.5;entryDx=0;entryDy=0;" edge="1" parent="1L4nAjFxOQN-aBNhJyho-36" source="1L4nAjFxOQN-aBNhJyho-24" target="1L4nAjFxOQN-aBNhJyho-27">
          <mxGeometry relative="1" as="geometry" />
        </mxCell>
        <mxCell id="1L4nAjFxOQN-aBNhJyho-24" value="MSP Gateway" style="rounded=1;whiteSpace=wrap;html=1;" parent="1L4nAjFxOQN-aBNhJyho-36" vertex="1">
          <mxGeometry x="210" y="50" width="120" height="60" as="geometry" />
        </mxCell>
        <mxCell id="1L4nAjFxOQN-aBNhJyho-38" style="edgeStyle=orthogonalEdgeStyle;rounded=0;orthogonalLoop=1;jettySize=auto;html=1;entryX=0.5;entryY=1;entryDx=0;entryDy=0;" parent="1L4nAjFxOQN-aBNhJyho-36" source="1L4nAjFxOQN-aBNhJyho-25" target="1L4nAjFxOQN-aBNhJyho-23" edge="1">
          <mxGeometry relative="1" as="geometry" />
        </mxCell>
        <mxCell id="WIQYE3tA3X634Tk99d2Z-2" style="edgeStyle=orthogonalEdgeStyle;rounded=0;orthogonalLoop=1;jettySize=auto;html=1;exitX=0;exitY=0.5;exitDx=0;exitDy=0;entryX=1;entryY=0.5;entryDx=0;entryDy=0;" edge="1" parent="1L4nAjFxOQN-aBNhJyho-36" source="1L4nAjFxOQN-aBNhJyho-25" target="1L4nAjFxOQN-aBNhJyho-28">
          <mxGeometry relative="1" as="geometry" />
        </mxCell>
        <mxCell id="1L4nAjFxOQN-aBNhJyho-25" value="LMP Gateway" style="rounded=1;whiteSpace=wrap;html=1;" parent="1L4nAjFxOQN-aBNhJyho-36" vertex="1">
          <mxGeometry x="210" y="120" width="120" height="60" as="geometry" />
        </mxCell>
        <mxCell id="1L4nAjFxOQN-aBNhJyho-27" value="MSP Auth" style="rounded=1;whiteSpace=wrap;html=1;" parent="1L4nAjFxOQN-aBNhJyho-36" vertex="1">
          <mxGeometry x="40" y="50" width="120" height="60" as="geometry" />
        </mxCell>
        <mxCell id="1L4nAjFxOQN-aBNhJyho-28" value="LMP Auth" style="rounded=1;whiteSpace=wrap;html=1;" parent="1L4nAjFxOQN-aBNhJyho-36" vertex="1">
          <mxGeometry x="40" y="120" width="120" height="60" as="geometry" />
        </mxCell>
        <mxCell id="1L4nAjFxOQN-aBNhJyho-7" value="" style="rounded=0;whiteSpace=wrap;html=1;" parent="WIQYE3tA3X634Tk99d2Z-10" vertex="1">
          <mxGeometry x="200" y="50" width="400" height="100" as="geometry" />
        </mxCell>
        <mxCell id="1L4nAjFxOQN-aBNhJyho-8" value="nginx" style="rounded=1;whiteSpace=wrap;html=1;" parent="WIQYE3tA3X634Tk99d2Z-10" vertex="1">
          <mxGeometry x="260" y="70" width="120" height="60" as="geometry" />
        </mxCell>
        <mxCell id="WIQYE3tA3X634Tk99d2Z-6" style="edgeStyle=orthogonalEdgeStyle;rounded=0;orthogonalLoop=1;jettySize=auto;html=1;exitX=0;exitY=0.5;exitDx=0;exitDy=0;entryX=0.5;entryY=0;entryDx=0;entryDy=0;strokeColor=#EA6B66;" edge="1" parent="WIQYE3tA3X634Tk99d2Z-10" source="1L4nAjFxOQN-aBNhJyho-9" target="1L4nAjFxOQN-aBNhJyho-24">
          <mxGeometry relative="1" as="geometry">
            <Array as="points">
              <mxPoint x="400" y="100" />
              <mxPoint x="400" y="160" />
              <mxPoint x="470" y="160" />
            </Array>
          </mxGeometry>
        </mxCell>
        <mxCell id="WIQYE3tA3X634Tk99d2Z-9" style="edgeStyle=orthogonalEdgeStyle;rounded=0;orthogonalLoop=1;jettySize=auto;html=1;exitX=0;exitY=0.5;exitDx=0;exitDy=0;entryX=0;entryY=0.25;entryDx=0;entryDy=0;strokeColor=#EA6B66;" edge="1" parent="WIQYE3tA3X634Tk99d2Z-10" source="1L4nAjFxOQN-aBNhJyho-9" target="1L4nAjFxOQN-aBNhJyho-25">
          <mxGeometry relative="1" as="geometry" />
        </mxCell>
        <mxCell id="WIQYE3tA3X634Tk99d2Z-48" style="edgeStyle=orthogonalEdgeStyle;rounded=0;orthogonalLoop=1;jettySize=auto;html=1;exitX=0.5;exitY=1;exitDx=0;exitDy=0;strokeColor=#99FF99;" edge="1" parent="WIQYE3tA3X634Tk99d2Z-10" source="1L4nAjFxOQN-aBNhJyho-9">
          <mxGeometry relative="1" as="geometry">
            <mxPoint x="-360" y="220" as="targetPoint" />
            <Array as="points">
              <mxPoint x="490" y="140" />
              <mxPoint x="-359" y="140" />
              <mxPoint x="-359" y="220" />
            </Array>
          </mxGeometry>
        </mxCell>
        <mxCell id="1L4nAjFxOQN-aBNhJyho-9" value="nginx" style="rounded=1;whiteSpace=wrap;html=1;" parent="WIQYE3tA3X634Tk99d2Z-10" vertex="1">
          <mxGeometry x="430" y="70" width="120" height="60" as="geometry" />
        </mxCell>
        <mxCell id="1L4nAjFxOQN-aBNhJyho-15" value="BY DC" style="rounded=1;whiteSpace=wrap;html=1;fillColor=#99FF99;" parent="WIQYE3tA3X634Tk99d2Z-10" vertex="1">
          <mxGeometry width="70" height="40" as="geometry" />
        </mxCell>
        <mxCell id="1L4nAjFxOQN-aBNhJyho-33" value="" style="group" parent="WIQYE3tA3X634Tk99d2Z-10" vertex="1" connectable="0">
          <mxGeometry x="10" y="195" width="140" height="250" as="geometry" />
        </mxCell>
        <mxCell id="1L4nAjFxOQN-aBNhJyho-11" value="" style="rounded=0;whiteSpace=wrap;html=1;" parent="1L4nAjFxOQN-aBNhJyho-33" vertex="1">
          <mxGeometry width="140" height="180" as="geometry" />
        </mxCell>
        <mxCell id="1L4nAjFxOQN-aBNhJyho-12" value="MongoDB" style="rounded=1;whiteSpace=wrap;html=1;" parent="1L4nAjFxOQN-aBNhJyho-33" vertex="1">
          <mxGeometry x="10" y="25" width="120" height="60" as="geometry" />
        </mxCell>
        <mxCell id="1L4nAjFxOQN-aBNhJyho-13" value="Redis" style="rounded=1;whiteSpace=wrap;html=1;" parent="1L4nAjFxOQN-aBNhJyho-33" vertex="1">
          <mxGeometry x="10" y="95" width="120" height="60" as="geometry" />
        </mxCell>
        <mxCell id="1L4nAjFxOQN-aBNhJyho-35" value="" style="group" parent="WIQYE3tA3X634Tk99d2Z-10" vertex="1" connectable="0">
          <mxGeometry x="260" y="420" width="440" height="70" as="geometry" />
        </mxCell>
        <mxCell id="1L4nAjFxOQN-aBNhJyho-17" value="" style="rounded=0;whiteSpace=wrap;html=1;" parent="1L4nAjFxOQN-aBNhJyho-35" vertex="1">
          <mxGeometry width="440" height="70" as="geometry" />
        </mxCell>
        <mxCell id="1L4nAjFxOQN-aBNhJyho-18" value="Service A" style="rounded=1;whiteSpace=wrap;html=1;" parent="1L4nAjFxOQN-aBNhJyho-35" vertex="1">
          <mxGeometry x="30" y="5" width="120" height="60" as="geometry" />
        </mxCell>
        <mxCell id="1L4nAjFxOQN-aBNhJyho-19" value="Service B" style="rounded=1;whiteSpace=wrap;html=1;" parent="1L4nAjFxOQN-aBNhJyho-35" vertex="1">
          <mxGeometry x="160" y="5" width="120" height="60" as="geometry" />
        </mxCell>
        <mxCell id="1L4nAjFxOQN-aBNhJyho-20" value="Service C" style="rounded=1;whiteSpace=wrap;html=1;" parent="1L4nAjFxOQN-aBNhJyho-35" vertex="1">
          <mxGeometry x="290" y="5" width="120" height="60" as="geometry" />
        </mxCell>
        <mxCell id="1L4nAjFxOQN-aBNhJyho-32" style="edgeStyle=orthogonalEdgeStyle;rounded=0;orthogonalLoop=1;jettySize=auto;html=1;exitX=0.5;exitY=1;exitDx=0;exitDy=0;entryX=1;entryY=0.5;entryDx=0;entryDy=0;" parent="WIQYE3tA3X634Tk99d2Z-10" source="1L4nAjFxOQN-aBNhJyho-20" target="1L4nAjFxOQN-aBNhJyho-23" edge="1">
          <mxGeometry relative="1" as="geometry">
            <Array as="points">
              <mxPoint x="610" y="510" />
              <mxPoint x="770" y="510" />
              <mxPoint x="770" y="295" />
            </Array>
          </mxGeometry>
        </mxCell>
        <mxCell id="1L4nAjFxOQN-aBNhJyho-31" style="edgeStyle=orthogonalEdgeStyle;rounded=0;orthogonalLoop=1;jettySize=auto;html=1;exitX=0.5;exitY=1;exitDx=0;exitDy=0;entryX=1;entryY=0.5;entryDx=0;entryDy=0;" parent="WIQYE3tA3X634Tk99d2Z-10" source="1L4nAjFxOQN-aBNhJyho-19" target="1L4nAjFxOQN-aBNhJyho-23" edge="1">
          <mxGeometry relative="1" as="geometry">
            <Array as="points">
              <mxPoint x="480" y="510" />
              <mxPoint x="770" y="510" />
              <mxPoint x="770" y="295" />
            </Array>
          </mxGeometry>
        </mxCell>
        <mxCell id="1L4nAjFxOQN-aBNhJyho-30" style="edgeStyle=orthogonalEdgeStyle;rounded=0;orthogonalLoop=1;jettySize=auto;html=1;entryX=1;entryY=0.5;entryDx=0;entryDy=0;" parent="WIQYE3tA3X634Tk99d2Z-10" source="1L4nAjFxOQN-aBNhJyho-18" target="1L4nAjFxOQN-aBNhJyho-23" edge="1">
          <mxGeometry relative="1" as="geometry">
            <Array as="points">
              <mxPoint x="350" y="510" />
              <mxPoint x="770" y="510" />
              <mxPoint x="770" y="295" />
            </Array>
          </mxGeometry>
        </mxCell>
        <mxCell id="WIQYE3tA3X634Tk99d2Z-3" style="edgeStyle=orthogonalEdgeStyle;rounded=0;orthogonalLoop=1;jettySize=auto;html=1;entryX=1;entryY=0.5;entryDx=0;entryDy=0;" edge="1" parent="WIQYE3tA3X634Tk99d2Z-10" source="1L4nAjFxOQN-aBNhJyho-27" target="1L4nAjFxOQN-aBNhJyho-12">
          <mxGeometry relative="1" as="geometry" />
        </mxCell>
        <mxCell id="WIQYE3tA3X634Tk99d2Z-4" style="edgeStyle=orthogonalEdgeStyle;rounded=0;orthogonalLoop=1;jettySize=auto;html=1;entryX=1;entryY=0.5;entryDx=0;entryDy=0;" edge="1" parent="WIQYE3tA3X634Tk99d2Z-10" source="1L4nAjFxOQN-aBNhJyho-28" target="1L4nAjFxOQN-aBNhJyho-13">
          <mxGeometry relative="1" as="geometry" />
        </mxCell>
        <mxCell id="WIQYE3tA3X634Tk99d2Z-5" style="edgeStyle=orthogonalEdgeStyle;rounded=0;orthogonalLoop=1;jettySize=auto;html=1;exitX=1;exitY=0.5;exitDx=0;exitDy=0;strokeColor=#EA6B66;" edge="1" parent="WIQYE3tA3X634Tk99d2Z-10">
          <mxGeometry relative="1" as="geometry">
            <mxPoint x="380" y="101" as="sourcePoint" />
            <mxPoint x="470" y="221" as="targetPoint" />
            <Array as="points">
              <mxPoint x="400" y="101" />
              <mxPoint x="400" y="161" />
              <mxPoint x="470" y="161" />
            </Array>
          </mxGeometry>
        </mxCell>
        <mxCell id="WIQYE3tA3X634Tk99d2Z-7" style="edgeStyle=orthogonalEdgeStyle;rounded=0;orthogonalLoop=1;jettySize=auto;html=1;exitX=0;exitY=0.5;exitDx=0;exitDy=0;entryX=1;entryY=0.25;entryDx=0;entryDy=0;" edge="1" parent="WIQYE3tA3X634Tk99d2Z-10" source="1L4nAjFxOQN-aBNhJyho-27" target="1L4nAjFxOQN-aBNhJyho-13">
          <mxGeometry relative="1" as="geometry" />
        </mxCell>
        <mxCell id="WIQYE3tA3X634Tk99d2Z-8" style="edgeStyle=orthogonalEdgeStyle;rounded=0;orthogonalLoop=1;jettySize=auto;html=1;entryX=0;entryY=0.25;entryDx=0;entryDy=0;strokeColor=#EA6B66;" edge="1" parent="WIQYE3tA3X634Tk99d2Z-10" source="1L4nAjFxOQN-aBNhJyho-8" target="1L4nAjFxOQN-aBNhJyho-25">
          <mxGeometry relative="1" as="geometry">
            <Array as="points">
              <mxPoint x="390" y="100" />
              <mxPoint x="390" y="305" />
            </Array>
          </mxGeometry>
        </mxCell>
        <mxCell id="1L4nAjFxOQN-aBNhJyho-21" style="edgeStyle=orthogonalEdgeStyle;rounded=0;orthogonalLoop=1;jettySize=auto;html=1;entryX=0.5;entryY=0;entryDx=0;entryDy=0;" parent="1" source="1L4nAjFxOQN-aBNhJyho-3" target="1L4nAjFxOQN-aBNhJyho-8" edge="1">
          <mxGeometry relative="1" as="geometry" />
        </mxCell>
        <mxCell id="1L4nAjFxOQN-aBNhJyho-22" style="edgeStyle=orthogonalEdgeStyle;rounded=0;orthogonalLoop=1;jettySize=auto;html=1;entryX=0.5;entryY=0;entryDx=0;entryDy=0;" parent="1" source="1L4nAjFxOQN-aBNhJyho-3" target="1L4nAjFxOQN-aBNhJyho-9" edge="1">
          <mxGeometry relative="1" as="geometry" />
        </mxCell>
        <mxCell id="WIQYE3tA3X634Tk99d2Z-12" value="" style="rounded=0;whiteSpace=wrap;html=1;" vertex="1" parent="1">
          <mxGeometry x="-830" y="280" width="800" height="520" as="geometry" />
        </mxCell>
        <mxCell id="WIQYE3tA3X634Tk99d2Z-13" value="" style="group" vertex="1" connectable="0" parent="1">
          <mxGeometry x="-630" y="450" width="500" height="230" as="geometry" />
        </mxCell>
        <mxCell id="WIQYE3tA3X634Tk99d2Z-14" value="" style="rounded=0;whiteSpace=wrap;html=1;" vertex="1" parent="WIQYE3tA3X634Tk99d2Z-13">
          <mxGeometry width="500" height="230" as="geometry" />
        </mxCell>
        <mxCell id="WIQYE3tA3X634Tk99d2Z-15" value="Eureka" style="rounded=1;whiteSpace=wrap;html=1;" vertex="1" parent="WIQYE3tA3X634Tk99d2Z-13">
          <mxGeometry x="370" y="95" width="120" height="60" as="geometry" />
        </mxCell>
        <mxCell id="WIQYE3tA3X634Tk99d2Z-16" style="edgeStyle=orthogonalEdgeStyle;rounded=0;orthogonalLoop=1;jettySize=auto;html=1;entryX=0.5;entryY=0;entryDx=0;entryDy=0;exitX=1;exitY=0.25;exitDx=0;exitDy=0;" edge="1" parent="WIQYE3tA3X634Tk99d2Z-13" source="WIQYE3tA3X634Tk99d2Z-18" target="WIQYE3tA3X634Tk99d2Z-15">
          <mxGeometry relative="1" as="geometry" />
        </mxCell>
        <mxCell id="WIQYE3tA3X634Tk99d2Z-17" style="edgeStyle=orthogonalEdgeStyle;rounded=0;orthogonalLoop=1;jettySize=auto;html=1;exitX=0;exitY=0.5;exitDx=0;exitDy=0;entryX=1;entryY=0.5;entryDx=0;entryDy=0;" edge="1" parent="WIQYE3tA3X634Tk99d2Z-13" source="WIQYE3tA3X634Tk99d2Z-18" target="WIQYE3tA3X634Tk99d2Z-22">
          <mxGeometry relative="1" as="geometry" />
        </mxCell>
        <mxCell id="WIQYE3tA3X634Tk99d2Z-18" value="MSP Gateway" style="rounded=1;whiteSpace=wrap;html=1;" vertex="1" parent="WIQYE3tA3X634Tk99d2Z-13">
          <mxGeometry x="210" y="50" width="120" height="60" as="geometry" />
        </mxCell>
        <mxCell id="WIQYE3tA3X634Tk99d2Z-19" style="edgeStyle=orthogonalEdgeStyle;rounded=0;orthogonalLoop=1;jettySize=auto;html=1;entryX=0.5;entryY=1;entryDx=0;entryDy=0;" edge="1" parent="WIQYE3tA3X634Tk99d2Z-13" source="WIQYE3tA3X634Tk99d2Z-21" target="WIQYE3tA3X634Tk99d2Z-15">
          <mxGeometry relative="1" as="geometry" />
        </mxCell>
        <mxCell id="WIQYE3tA3X634Tk99d2Z-20" style="edgeStyle=orthogonalEdgeStyle;rounded=0;orthogonalLoop=1;jettySize=auto;html=1;exitX=0;exitY=0.5;exitDx=0;exitDy=0;entryX=1;entryY=0.5;entryDx=0;entryDy=0;" edge="1" parent="WIQYE3tA3X634Tk99d2Z-13" source="WIQYE3tA3X634Tk99d2Z-21" target="WIQYE3tA3X634Tk99d2Z-23">
          <mxGeometry relative="1" as="geometry" />
        </mxCell>
        <mxCell id="WIQYE3tA3X634Tk99d2Z-21" value="LMP Gateway" style="rounded=1;whiteSpace=wrap;html=1;" vertex="1" parent="WIQYE3tA3X634Tk99d2Z-13">
          <mxGeometry x="210" y="120" width="120" height="60" as="geometry" />
        </mxCell>
        <mxCell id="WIQYE3tA3X634Tk99d2Z-22" value="MSP Auth" style="rounded=1;whiteSpace=wrap;html=1;" vertex="1" parent="WIQYE3tA3X634Tk99d2Z-13">
          <mxGeometry x="40" y="50" width="120" height="60" as="geometry" />
        </mxCell>
        <mxCell id="WIQYE3tA3X634Tk99d2Z-23" value="LMP Auth" style="rounded=1;whiteSpace=wrap;html=1;" vertex="1" parent="WIQYE3tA3X634Tk99d2Z-13">
          <mxGeometry x="40" y="120" width="120" height="60" as="geometry" />
        </mxCell>
        <mxCell id="WIQYE3tA3X634Tk99d2Z-29" value="SY DC" style="rounded=1;whiteSpace=wrap;html=1;fillColor=#99FF99;" vertex="1" parent="1">
          <mxGeometry x="-830" y="280" width="70" height="40" as="geometry" />
        </mxCell>
        <mxCell id="WIQYE3tA3X634Tk99d2Z-30" value="" style="group" vertex="1" connectable="0" parent="1">
          <mxGeometry x="-820" y="475" width="140" height="250" as="geometry" />
        </mxCell>
        <mxCell id="WIQYE3tA3X634Tk99d2Z-31" value="" style="rounded=0;whiteSpace=wrap;html=1;" vertex="1" parent="WIQYE3tA3X634Tk99d2Z-30">
          <mxGeometry width="140" height="180" as="geometry" />
        </mxCell>
        <mxCell id="WIQYE3tA3X634Tk99d2Z-32" value="MongoDB" style="rounded=1;whiteSpace=wrap;html=1;" vertex="1" parent="WIQYE3tA3X634Tk99d2Z-30">
          <mxGeometry x="10" y="25" width="120" height="60" as="geometry" />
        </mxCell>
        <mxCell id="WIQYE3tA3X634Tk99d2Z-33" value="Redis" style="rounded=1;whiteSpace=wrap;html=1;" vertex="1" parent="WIQYE3tA3X634Tk99d2Z-30">
          <mxGeometry x="10" y="95" width="120" height="60" as="geometry" />
        </mxCell>
        <mxCell id="WIQYE3tA3X634Tk99d2Z-34" value="" style="group" vertex="1" connectable="0" parent="1">
          <mxGeometry x="-570" y="700" width="440" height="70" as="geometry" />
        </mxCell>
        <mxCell id="WIQYE3tA3X634Tk99d2Z-35" value="" style="rounded=0;whiteSpace=wrap;html=1;" vertex="1" parent="WIQYE3tA3X634Tk99d2Z-34">
          <mxGeometry width="440" height="70" as="geometry" />
        </mxCell>
        <mxCell id="WIQYE3tA3X634Tk99d2Z-36" value="Service A" style="rounded=1;whiteSpace=wrap;html=1;" vertex="1" parent="WIQYE3tA3X634Tk99d2Z-34">
          <mxGeometry x="30" y="5" width="120" height="60" as="geometry" />
        </mxCell>
        <mxCell id="WIQYE3tA3X634Tk99d2Z-37" value="Service B" style="rounded=1;whiteSpace=wrap;html=1;" vertex="1" parent="WIQYE3tA3X634Tk99d2Z-34">
          <mxGeometry x="160" y="5" width="120" height="60" as="geometry" />
        </mxCell>
        <mxCell id="WIQYE3tA3X634Tk99d2Z-38" value="Service C" style="rounded=1;whiteSpace=wrap;html=1;" vertex="1" parent="WIQYE3tA3X634Tk99d2Z-34">
          <mxGeometry x="290" y="5" width="120" height="60" as="geometry" />
        </mxCell>
        <mxCell id="WIQYE3tA3X634Tk99d2Z-39" style="edgeStyle=orthogonalEdgeStyle;rounded=0;orthogonalLoop=1;jettySize=auto;html=1;exitX=0.5;exitY=1;exitDx=0;exitDy=0;entryX=1;entryY=0.5;entryDx=0;entryDy=0;" edge="1" parent="1" source="WIQYE3tA3X634Tk99d2Z-38" target="WIQYE3tA3X634Tk99d2Z-15">
          <mxGeometry relative="1" as="geometry">
            <Array as="points">
              <mxPoint x="-220" y="790" />
              <mxPoint x="-60" y="790" />
              <mxPoint x="-60" y="575" />
            </Array>
          </mxGeometry>
        </mxCell>
        <mxCell id="WIQYE3tA3X634Tk99d2Z-40" style="edgeStyle=orthogonalEdgeStyle;rounded=0;orthogonalLoop=1;jettySize=auto;html=1;exitX=0.5;exitY=1;exitDx=0;exitDy=0;entryX=1;entryY=0.5;entryDx=0;entryDy=0;" edge="1" parent="1" source="WIQYE3tA3X634Tk99d2Z-37" target="WIQYE3tA3X634Tk99d2Z-15">
          <mxGeometry relative="1" as="geometry">
            <Array as="points">
              <mxPoint x="-350" y="790" />
              <mxPoint x="-60" y="790" />
              <mxPoint x="-60" y="575" />
            </Array>
          </mxGeometry>
        </mxCell>
        <mxCell id="WIQYE3tA3X634Tk99d2Z-41" style="edgeStyle=orthogonalEdgeStyle;rounded=0;orthogonalLoop=1;jettySize=auto;html=1;entryX=1;entryY=0.5;entryDx=0;entryDy=0;" edge="1" parent="1" source="WIQYE3tA3X634Tk99d2Z-36" target="WIQYE3tA3X634Tk99d2Z-15">
          <mxGeometry relative="1" as="geometry">
            <Array as="points">
              <mxPoint x="-480" y="790" />
              <mxPoint x="-60" y="790" />
              <mxPoint x="-60" y="575" />
            </Array>
          </mxGeometry>
        </mxCell>
        <mxCell id="WIQYE3tA3X634Tk99d2Z-42" style="edgeStyle=orthogonalEdgeStyle;rounded=0;orthogonalLoop=1;jettySize=auto;html=1;entryX=1;entryY=0.5;entryDx=0;entryDy=0;" edge="1" parent="1" source="WIQYE3tA3X634Tk99d2Z-22" target="WIQYE3tA3X634Tk99d2Z-32">
          <mxGeometry relative="1" as="geometry" />
        </mxCell>
        <mxCell id="WIQYE3tA3X634Tk99d2Z-43" style="edgeStyle=orthogonalEdgeStyle;rounded=0;orthogonalLoop=1;jettySize=auto;html=1;entryX=1;entryY=0.5;entryDx=0;entryDy=0;" edge="1" parent="1" source="WIQYE3tA3X634Tk99d2Z-23" target="WIQYE3tA3X634Tk99d2Z-33">
          <mxGeometry relative="1" as="geometry" />
        </mxCell>
        <mxCell id="WIQYE3tA3X634Tk99d2Z-45" style="edgeStyle=orthogonalEdgeStyle;rounded=0;orthogonalLoop=1;jettySize=auto;html=1;exitX=0;exitY=0.5;exitDx=0;exitDy=0;entryX=1;entryY=0.25;entryDx=0;entryDy=0;" edge="1" parent="1" source="WIQYE3tA3X634Tk99d2Z-22" target="WIQYE3tA3X634Tk99d2Z-33">
          <mxGeometry relative="1" as="geometry" />
        </mxCell>
        <mxCell id="WIQYE3tA3X634Tk99d2Z-47" style="edgeStyle=orthogonalEdgeStyle;rounded=0;orthogonalLoop=1;jettySize=auto;html=1;strokeColor=#99FF99;" edge="1" parent="1" source="1L4nAjFxOQN-aBNhJyho-8" target="WIQYE3tA3X634Tk99d2Z-18">
          <mxGeometry relative="1" as="geometry">
            <Array as="points">
              <mxPoint x="320" y="420" />
              <mxPoint x="-360" y="420" />
            </Array>
          </mxGeometry>
        </mxCell>
        <mxCell id="WIQYE3tA3X634Tk99d2Z-49" value="&lt;code&gt;&lt;font style=&quot;font-size: 18px;&quot;&gt;&lt;span class=&quot;n&quot;&gt;api&lt;/span&gt;.&lt;span class=&quot;n&quot;&gt;unifiedcloud&lt;/span&gt;.&lt;span class=&quot;n&quot;&gt;lenovo&lt;/span&gt;.&lt;span class=&quot;n&quot;&gt;com&lt;/span&gt;&lt;/font&gt;&lt;/code&gt;" style="text;html=1;align=center;verticalAlign=middle;whiteSpace=wrap;rounded=0;" vertex="1" parent="1">
          <mxGeometry x="370" y="1000" width="60" height="30" as="geometry" />
        </mxCell>
        <mxCell id="WIQYE3tA3X634Tk99d2Z-50" value="" style="rounded=0;whiteSpace=wrap;html=1;" vertex="1" parent="1">
          <mxGeometry x="200" y="1060" width="400" height="120" as="geometry" />
        </mxCell>
        <mxCell id="WIQYE3tA3X634Tk99d2Z-51" value="BY F5" style="rounded=1;whiteSpace=wrap;html=1;" vertex="1" parent="1">
          <mxGeometry x="230" y="1090" width="120" height="60" as="geometry" />
        </mxCell>
        <mxCell id="WIQYE3tA3X634Tk99d2Z-52" style="edgeStyle=orthogonalEdgeStyle;rounded=0;orthogonalLoop=1;jettySize=auto;html=1;entryX=0.5;entryY=0;entryDx=0;entryDy=0;" edge="1" parent="1" source="WIQYE3tA3X634Tk99d2Z-49" target="WIQYE3tA3X634Tk99d2Z-121">
          <mxGeometry relative="1" as="geometry">
            <Array as="points">
              <mxPoint x="400" y="1080" />
              <mxPoint x="490" y="1080" />
            </Array>
          </mxGeometry>
        </mxCell>
        <mxCell id="WIQYE3tA3X634Tk99d2Z-53" value="" style="group" vertex="1" connectable="0" parent="1">
          <mxGeometry y="1260" width="800" height="520" as="geometry" />
        </mxCell>
        <mxCell id="WIQYE3tA3X634Tk99d2Z-54" value="" style="rounded=0;whiteSpace=wrap;html=1;" vertex="1" parent="WIQYE3tA3X634Tk99d2Z-53">
          <mxGeometry width="800" height="520" as="geometry" />
        </mxCell>
        <mxCell id="WIQYE3tA3X634Tk99d2Z-55" value="" style="group" vertex="1" connectable="0" parent="WIQYE3tA3X634Tk99d2Z-53">
          <mxGeometry x="200" y="170" width="500" height="230" as="geometry" />
        </mxCell>
        <mxCell id="WIQYE3tA3X634Tk99d2Z-56" value="" style="rounded=0;whiteSpace=wrap;html=1;" vertex="1" parent="WIQYE3tA3X634Tk99d2Z-55">
          <mxGeometry width="500" height="230" as="geometry" />
        </mxCell>
        <mxCell id="WIQYE3tA3X634Tk99d2Z-57" value="Eureka" style="rounded=1;whiteSpace=wrap;html=1;" vertex="1" parent="WIQYE3tA3X634Tk99d2Z-55">
          <mxGeometry x="370" y="95" width="120" height="60" as="geometry" />
        </mxCell>
        <mxCell id="WIQYE3tA3X634Tk99d2Z-58" style="edgeStyle=orthogonalEdgeStyle;rounded=0;orthogonalLoop=1;jettySize=auto;html=1;entryX=0.5;entryY=0;entryDx=0;entryDy=0;exitX=1;exitY=0.25;exitDx=0;exitDy=0;" edge="1" parent="WIQYE3tA3X634Tk99d2Z-55" source="WIQYE3tA3X634Tk99d2Z-60" target="WIQYE3tA3X634Tk99d2Z-57">
          <mxGeometry relative="1" as="geometry" />
        </mxCell>
        <mxCell id="WIQYE3tA3X634Tk99d2Z-59" style="edgeStyle=orthogonalEdgeStyle;rounded=0;orthogonalLoop=1;jettySize=auto;html=1;exitX=0;exitY=0.5;exitDx=0;exitDy=0;entryX=1;entryY=0.5;entryDx=0;entryDy=0;" edge="1" parent="WIQYE3tA3X634Tk99d2Z-55" source="WIQYE3tA3X634Tk99d2Z-60" target="WIQYE3tA3X634Tk99d2Z-64">
          <mxGeometry relative="1" as="geometry" />
        </mxCell>
        <mxCell id="WIQYE3tA3X634Tk99d2Z-60" value="MSP Gateway" style="rounded=1;whiteSpace=wrap;html=1;" vertex="1" parent="WIQYE3tA3X634Tk99d2Z-55">
          <mxGeometry x="210" y="50" width="120" height="60" as="geometry" />
        </mxCell>
        <mxCell id="WIQYE3tA3X634Tk99d2Z-61" style="edgeStyle=orthogonalEdgeStyle;rounded=0;orthogonalLoop=1;jettySize=auto;html=1;entryX=0.5;entryY=1;entryDx=0;entryDy=0;" edge="1" parent="WIQYE3tA3X634Tk99d2Z-55" source="WIQYE3tA3X634Tk99d2Z-63" target="WIQYE3tA3X634Tk99d2Z-57">
          <mxGeometry relative="1" as="geometry" />
        </mxCell>
        <mxCell id="WIQYE3tA3X634Tk99d2Z-62" style="edgeStyle=orthogonalEdgeStyle;rounded=0;orthogonalLoop=1;jettySize=auto;html=1;exitX=0;exitY=0.5;exitDx=0;exitDy=0;entryX=1;entryY=0.5;entryDx=0;entryDy=0;" edge="1" parent="WIQYE3tA3X634Tk99d2Z-55" source="WIQYE3tA3X634Tk99d2Z-63" target="WIQYE3tA3X634Tk99d2Z-65">
          <mxGeometry relative="1" as="geometry" />
        </mxCell>
        <mxCell id="WIQYE3tA3X634Tk99d2Z-63" value="LMP Gateway" style="rounded=1;whiteSpace=wrap;html=1;" vertex="1" parent="WIQYE3tA3X634Tk99d2Z-55">
          <mxGeometry x="210" y="120" width="120" height="60" as="geometry" />
        </mxCell>
        <mxCell id="WIQYE3tA3X634Tk99d2Z-64" value="MSP Auth" style="rounded=1;whiteSpace=wrap;html=1;" vertex="1" parent="WIQYE3tA3X634Tk99d2Z-55">
          <mxGeometry x="40" y="50" width="120" height="60" as="geometry" />
        </mxCell>
        <mxCell id="WIQYE3tA3X634Tk99d2Z-65" value="LMP Auth" style="rounded=1;whiteSpace=wrap;html=1;" vertex="1" parent="WIQYE3tA3X634Tk99d2Z-55">
          <mxGeometry x="40" y="120" width="120" height="60" as="geometry" />
        </mxCell>
        <mxCell id="WIQYE3tA3X634Tk99d2Z-72" value="BY DC" style="rounded=1;whiteSpace=wrap;html=1;fillColor=#99FF99;" vertex="1" parent="WIQYE3tA3X634Tk99d2Z-53">
          <mxGeometry width="70" height="40" as="geometry" />
        </mxCell>
        <mxCell id="WIQYE3tA3X634Tk99d2Z-73" value="" style="group" vertex="1" connectable="0" parent="WIQYE3tA3X634Tk99d2Z-53">
          <mxGeometry x="10" y="195" width="140" height="250" as="geometry" />
        </mxCell>
        <mxCell id="WIQYE3tA3X634Tk99d2Z-74" value="" style="rounded=0;whiteSpace=wrap;html=1;" vertex="1" parent="WIQYE3tA3X634Tk99d2Z-73">
          <mxGeometry width="140" height="180" as="geometry" />
        </mxCell>
        <mxCell id="WIQYE3tA3X634Tk99d2Z-75" value="MongoDB" style="rounded=1;whiteSpace=wrap;html=1;" vertex="1" parent="WIQYE3tA3X634Tk99d2Z-73">
          <mxGeometry x="10" y="25" width="120" height="60" as="geometry" />
        </mxCell>
        <mxCell id="WIQYE3tA3X634Tk99d2Z-76" value="Redis" style="rounded=1;whiteSpace=wrap;html=1;" vertex="1" parent="WIQYE3tA3X634Tk99d2Z-73">
          <mxGeometry x="10" y="95" width="120" height="60" as="geometry" />
        </mxCell>
        <mxCell id="WIQYE3tA3X634Tk99d2Z-77" value="" style="group" vertex="1" connectable="0" parent="WIQYE3tA3X634Tk99d2Z-53">
          <mxGeometry x="260" y="420" width="440" height="70" as="geometry" />
        </mxCell>
        <mxCell id="WIQYE3tA3X634Tk99d2Z-78" value="" style="rounded=0;whiteSpace=wrap;html=1;" vertex="1" parent="WIQYE3tA3X634Tk99d2Z-77">
          <mxGeometry width="440" height="70" as="geometry" />
        </mxCell>
        <mxCell id="WIQYE3tA3X634Tk99d2Z-79" value="Service A" style="rounded=1;whiteSpace=wrap;html=1;" vertex="1" parent="WIQYE3tA3X634Tk99d2Z-77">
          <mxGeometry x="30" y="5" width="120" height="60" as="geometry" />
        </mxCell>
        <mxCell id="WIQYE3tA3X634Tk99d2Z-80" value="Service B" style="rounded=1;whiteSpace=wrap;html=1;" vertex="1" parent="WIQYE3tA3X634Tk99d2Z-77">
          <mxGeometry x="160" y="5" width="120" height="60" as="geometry" />
        </mxCell>
        <mxCell id="WIQYE3tA3X634Tk99d2Z-81" value="Service C" style="rounded=1;whiteSpace=wrap;html=1;" vertex="1" parent="WIQYE3tA3X634Tk99d2Z-77">
          <mxGeometry x="290" y="5" width="120" height="60" as="geometry" />
        </mxCell>
        <mxCell id="WIQYE3tA3X634Tk99d2Z-82" style="edgeStyle=orthogonalEdgeStyle;rounded=0;orthogonalLoop=1;jettySize=auto;html=1;exitX=0.5;exitY=1;exitDx=0;exitDy=0;entryX=1;entryY=0.5;entryDx=0;entryDy=0;" edge="1" parent="WIQYE3tA3X634Tk99d2Z-53" source="WIQYE3tA3X634Tk99d2Z-81" target="WIQYE3tA3X634Tk99d2Z-57">
          <mxGeometry relative="1" as="geometry">
            <Array as="points">
              <mxPoint x="610" y="510" />
              <mxPoint x="770" y="510" />
              <mxPoint x="770" y="295" />
            </Array>
          </mxGeometry>
        </mxCell>
        <mxCell id="WIQYE3tA3X634Tk99d2Z-83" style="edgeStyle=orthogonalEdgeStyle;rounded=0;orthogonalLoop=1;jettySize=auto;html=1;exitX=0.5;exitY=1;exitDx=0;exitDy=0;entryX=1;entryY=0.5;entryDx=0;entryDy=0;" edge="1" parent="WIQYE3tA3X634Tk99d2Z-53" source="WIQYE3tA3X634Tk99d2Z-80" target="WIQYE3tA3X634Tk99d2Z-57">
          <mxGeometry relative="1" as="geometry">
            <Array as="points">
              <mxPoint x="480" y="510" />
              <mxPoint x="770" y="510" />
              <mxPoint x="770" y="295" />
            </Array>
          </mxGeometry>
        </mxCell>
        <mxCell id="WIQYE3tA3X634Tk99d2Z-84" style="edgeStyle=orthogonalEdgeStyle;rounded=0;orthogonalLoop=1;jettySize=auto;html=1;entryX=1;entryY=0.5;entryDx=0;entryDy=0;" edge="1" parent="WIQYE3tA3X634Tk99d2Z-53" source="WIQYE3tA3X634Tk99d2Z-79" target="WIQYE3tA3X634Tk99d2Z-57">
          <mxGeometry relative="1" as="geometry">
            <Array as="points">
              <mxPoint x="350" y="510" />
              <mxPoint x="770" y="510" />
              <mxPoint x="770" y="295" />
            </Array>
          </mxGeometry>
        </mxCell>
        <mxCell id="WIQYE3tA3X634Tk99d2Z-85" style="edgeStyle=orthogonalEdgeStyle;rounded=0;orthogonalLoop=1;jettySize=auto;html=1;entryX=1;entryY=0.5;entryDx=0;entryDy=0;" edge="1" parent="WIQYE3tA3X634Tk99d2Z-53" source="WIQYE3tA3X634Tk99d2Z-64" target="WIQYE3tA3X634Tk99d2Z-75">
          <mxGeometry relative="1" as="geometry" />
        </mxCell>
        <mxCell id="WIQYE3tA3X634Tk99d2Z-86" style="edgeStyle=orthogonalEdgeStyle;rounded=0;orthogonalLoop=1;jettySize=auto;html=1;entryX=1;entryY=0.5;entryDx=0;entryDy=0;" edge="1" parent="WIQYE3tA3X634Tk99d2Z-53" source="WIQYE3tA3X634Tk99d2Z-65" target="WIQYE3tA3X634Tk99d2Z-76">
          <mxGeometry relative="1" as="geometry" />
        </mxCell>
        <mxCell id="WIQYE3tA3X634Tk99d2Z-88" style="edgeStyle=orthogonalEdgeStyle;rounded=0;orthogonalLoop=1;jettySize=auto;html=1;exitX=0;exitY=0.5;exitDx=0;exitDy=0;entryX=1;entryY=0.25;entryDx=0;entryDy=0;" edge="1" parent="WIQYE3tA3X634Tk99d2Z-53" source="WIQYE3tA3X634Tk99d2Z-64" target="WIQYE3tA3X634Tk99d2Z-76">
          <mxGeometry relative="1" as="geometry" />
        </mxCell>
        <mxCell id="WIQYE3tA3X634Tk99d2Z-70" style="edgeStyle=orthogonalEdgeStyle;rounded=0;orthogonalLoop=1;jettySize=auto;html=1;exitX=0.25;exitY=1;exitDx=0;exitDy=0;strokeColor=#99FF99;" edge="1" parent="WIQYE3tA3X634Tk99d2Z-53" source="WIQYE3tA3X634Tk99d2Z-141">
          <mxGeometry relative="1" as="geometry">
            <mxPoint x="-360" y="220" as="targetPoint" />
            <Array as="points">
              <mxPoint x="1320" y="140" />
              <mxPoint x="-359" y="140" />
              <mxPoint x="-359" y="220" />
            </Array>
          </mxGeometry>
        </mxCell>
        <mxCell id="WIQYE3tA3X634Tk99d2Z-87" style="edgeStyle=orthogonalEdgeStyle;rounded=0;orthogonalLoop=1;jettySize=auto;html=1;exitX=0.5;exitY=1;exitDx=0;exitDy=0;strokeColor=#EA6B66;" edge="1" parent="WIQYE3tA3X634Tk99d2Z-53" source="WIQYE3tA3X634Tk99d2Z-137">
          <mxGeometry relative="1" as="geometry">
            <mxPoint x="380" y="101" as="sourcePoint" />
            <mxPoint x="470" y="221" as="targetPoint" />
            <Array as="points">
              <mxPoint x="1180" y="180" />
              <mxPoint x="470" y="180" />
            </Array>
          </mxGeometry>
        </mxCell>
        <mxCell id="WIQYE3tA3X634Tk99d2Z-91" style="edgeStyle=orthogonalEdgeStyle;rounded=0;orthogonalLoop=1;jettySize=auto;html=1;exitX=0.5;exitY=1;exitDx=0;exitDy=0;" edge="1" parent="1" source="WIQYE3tA3X634Tk99d2Z-121" target="WIQYE3tA3X634Tk99d2Z-141">
          <mxGeometry relative="1" as="geometry" />
        </mxCell>
        <mxCell id="WIQYE3tA3X634Tk99d2Z-92" value="" style="rounded=0;whiteSpace=wrap;html=1;" vertex="1" parent="1">
          <mxGeometry x="-830" y="1260" width="800" height="520" as="geometry" />
        </mxCell>
        <mxCell id="WIQYE3tA3X634Tk99d2Z-93" value="" style="group" vertex="1" connectable="0" parent="1">
          <mxGeometry x="-630" y="1430" width="500" height="230" as="geometry" />
        </mxCell>
        <mxCell id="WIQYE3tA3X634Tk99d2Z-94" value="" style="rounded=0;whiteSpace=wrap;html=1;" vertex="1" parent="WIQYE3tA3X634Tk99d2Z-93">
          <mxGeometry width="500" height="230" as="geometry" />
        </mxCell>
        <mxCell id="WIQYE3tA3X634Tk99d2Z-95" value="Eureka" style="rounded=1;whiteSpace=wrap;html=1;" vertex="1" parent="WIQYE3tA3X634Tk99d2Z-93">
          <mxGeometry x="370" y="95" width="120" height="60" as="geometry" />
        </mxCell>
        <mxCell id="WIQYE3tA3X634Tk99d2Z-96" style="edgeStyle=orthogonalEdgeStyle;rounded=0;orthogonalLoop=1;jettySize=auto;html=1;entryX=0.5;entryY=0;entryDx=0;entryDy=0;exitX=1;exitY=0.25;exitDx=0;exitDy=0;" edge="1" parent="WIQYE3tA3X634Tk99d2Z-93" source="WIQYE3tA3X634Tk99d2Z-98" target="WIQYE3tA3X634Tk99d2Z-95">
          <mxGeometry relative="1" as="geometry" />
        </mxCell>
        <mxCell id="WIQYE3tA3X634Tk99d2Z-97" style="edgeStyle=orthogonalEdgeStyle;rounded=0;orthogonalLoop=1;jettySize=auto;html=1;exitX=0;exitY=0.5;exitDx=0;exitDy=0;entryX=1;entryY=0.5;entryDx=0;entryDy=0;" edge="1" parent="WIQYE3tA3X634Tk99d2Z-93" source="WIQYE3tA3X634Tk99d2Z-98" target="WIQYE3tA3X634Tk99d2Z-102">
          <mxGeometry relative="1" as="geometry" />
        </mxCell>
        <mxCell id="WIQYE3tA3X634Tk99d2Z-98" value="MSP Gateway" style="rounded=1;whiteSpace=wrap;html=1;" vertex="1" parent="WIQYE3tA3X634Tk99d2Z-93">
          <mxGeometry x="210" y="50" width="120" height="60" as="geometry" />
        </mxCell>
        <mxCell id="WIQYE3tA3X634Tk99d2Z-99" style="edgeStyle=orthogonalEdgeStyle;rounded=0;orthogonalLoop=1;jettySize=auto;html=1;entryX=0.5;entryY=1;entryDx=0;entryDy=0;" edge="1" parent="WIQYE3tA3X634Tk99d2Z-93" source="WIQYE3tA3X634Tk99d2Z-101" target="WIQYE3tA3X634Tk99d2Z-95">
          <mxGeometry relative="1" as="geometry" />
        </mxCell>
        <mxCell id="WIQYE3tA3X634Tk99d2Z-100" style="edgeStyle=orthogonalEdgeStyle;rounded=0;orthogonalLoop=1;jettySize=auto;html=1;exitX=0;exitY=0.5;exitDx=0;exitDy=0;entryX=1;entryY=0.5;entryDx=0;entryDy=0;" edge="1" parent="WIQYE3tA3X634Tk99d2Z-93" source="WIQYE3tA3X634Tk99d2Z-101" target="WIQYE3tA3X634Tk99d2Z-103">
          <mxGeometry relative="1" as="geometry" />
        </mxCell>
        <mxCell id="WIQYE3tA3X634Tk99d2Z-101" value="LMP Gateway" style="rounded=1;whiteSpace=wrap;html=1;" vertex="1" parent="WIQYE3tA3X634Tk99d2Z-93">
          <mxGeometry x="210" y="120" width="120" height="60" as="geometry" />
        </mxCell>
        <mxCell id="WIQYE3tA3X634Tk99d2Z-102" value="MSP Auth" style="rounded=1;whiteSpace=wrap;html=1;" vertex="1" parent="WIQYE3tA3X634Tk99d2Z-93">
          <mxGeometry x="40" y="50" width="120" height="60" as="geometry" />
        </mxCell>
        <mxCell id="WIQYE3tA3X634Tk99d2Z-103" value="LMP Auth" style="rounded=1;whiteSpace=wrap;html=1;" vertex="1" parent="WIQYE3tA3X634Tk99d2Z-93">
          <mxGeometry x="40" y="120" width="120" height="60" as="geometry" />
        </mxCell>
        <mxCell id="WIQYE3tA3X634Tk99d2Z-104" value="SY DC" style="rounded=1;whiteSpace=wrap;html=1;fillColor=#99FF99;" vertex="1" parent="1">
          <mxGeometry x="-830" y="1260" width="70" height="40" as="geometry" />
        </mxCell>
        <mxCell id="WIQYE3tA3X634Tk99d2Z-105" value="" style="group" vertex="1" connectable="0" parent="1">
          <mxGeometry x="-820" y="1455" width="140" height="250" as="geometry" />
        </mxCell>
        <mxCell id="WIQYE3tA3X634Tk99d2Z-106" value="" style="rounded=0;whiteSpace=wrap;html=1;" vertex="1" parent="WIQYE3tA3X634Tk99d2Z-105">
          <mxGeometry width="140" height="180" as="geometry" />
        </mxCell>
        <mxCell id="WIQYE3tA3X634Tk99d2Z-107" value="MongoDB" style="rounded=1;whiteSpace=wrap;html=1;" vertex="1" parent="WIQYE3tA3X634Tk99d2Z-105">
          <mxGeometry x="10" y="25" width="120" height="60" as="geometry" />
        </mxCell>
        <mxCell id="WIQYE3tA3X634Tk99d2Z-108" value="Redis" style="rounded=1;whiteSpace=wrap;html=1;" vertex="1" parent="WIQYE3tA3X634Tk99d2Z-105">
          <mxGeometry x="10" y="95" width="120" height="60" as="geometry" />
        </mxCell>
        <mxCell id="WIQYE3tA3X634Tk99d2Z-109" value="" style="group" vertex="1" connectable="0" parent="1">
          <mxGeometry x="-570" y="1680" width="440" height="70" as="geometry" />
        </mxCell>
        <mxCell id="WIQYE3tA3X634Tk99d2Z-110" value="" style="rounded=0;whiteSpace=wrap;html=1;" vertex="1" parent="WIQYE3tA3X634Tk99d2Z-109">
          <mxGeometry width="440" height="70" as="geometry" />
        </mxCell>
        <mxCell id="WIQYE3tA3X634Tk99d2Z-111" value="Service A" style="rounded=1;whiteSpace=wrap;html=1;" vertex="1" parent="WIQYE3tA3X634Tk99d2Z-109">
          <mxGeometry x="30" y="5" width="120" height="60" as="geometry" />
        </mxCell>
        <mxCell id="WIQYE3tA3X634Tk99d2Z-112" value="Service B" style="rounded=1;whiteSpace=wrap;html=1;" vertex="1" parent="WIQYE3tA3X634Tk99d2Z-109">
          <mxGeometry x="160" y="5" width="120" height="60" as="geometry" />
        </mxCell>
        <mxCell id="WIQYE3tA3X634Tk99d2Z-113" value="Service C" style="rounded=1;whiteSpace=wrap;html=1;" vertex="1" parent="WIQYE3tA3X634Tk99d2Z-109">
          <mxGeometry x="290" y="5" width="120" height="60" as="geometry" />
        </mxCell>
        <mxCell id="WIQYE3tA3X634Tk99d2Z-114" style="edgeStyle=orthogonalEdgeStyle;rounded=0;orthogonalLoop=1;jettySize=auto;html=1;exitX=0.5;exitY=1;exitDx=0;exitDy=0;entryX=1;entryY=0.5;entryDx=0;entryDy=0;" edge="1" parent="1" source="WIQYE3tA3X634Tk99d2Z-113" target="WIQYE3tA3X634Tk99d2Z-95">
          <mxGeometry relative="1" as="geometry">
            <Array as="points">
              <mxPoint x="-220" y="1770" />
              <mxPoint x="-60" y="1770" />
              <mxPoint x="-60" y="1555" />
            </Array>
          </mxGeometry>
        </mxCell>
        <mxCell id="WIQYE3tA3X634Tk99d2Z-115" style="edgeStyle=orthogonalEdgeStyle;rounded=0;orthogonalLoop=1;jettySize=auto;html=1;exitX=0.5;exitY=1;exitDx=0;exitDy=0;entryX=1;entryY=0.5;entryDx=0;entryDy=0;" edge="1" parent="1" source="WIQYE3tA3X634Tk99d2Z-112" target="WIQYE3tA3X634Tk99d2Z-95">
          <mxGeometry relative="1" as="geometry">
            <Array as="points">
              <mxPoint x="-350" y="1770" />
              <mxPoint x="-60" y="1770" />
              <mxPoint x="-60" y="1555" />
            </Array>
          </mxGeometry>
        </mxCell>
        <mxCell id="WIQYE3tA3X634Tk99d2Z-116" style="edgeStyle=orthogonalEdgeStyle;rounded=0;orthogonalLoop=1;jettySize=auto;html=1;entryX=1;entryY=0.5;entryDx=0;entryDy=0;" edge="1" parent="1" source="WIQYE3tA3X634Tk99d2Z-111" target="WIQYE3tA3X634Tk99d2Z-95">
          <mxGeometry relative="1" as="geometry">
            <Array as="points">
              <mxPoint x="-480" y="1770" />
              <mxPoint x="-60" y="1770" />
              <mxPoint x="-60" y="1555" />
            </Array>
          </mxGeometry>
        </mxCell>
        <mxCell id="WIQYE3tA3X634Tk99d2Z-117" style="edgeStyle=orthogonalEdgeStyle;rounded=0;orthogonalLoop=1;jettySize=auto;html=1;entryX=1;entryY=0.5;entryDx=0;entryDy=0;" edge="1" parent="1" source="WIQYE3tA3X634Tk99d2Z-102" target="WIQYE3tA3X634Tk99d2Z-107">
          <mxGeometry relative="1" as="geometry" />
        </mxCell>
        <mxCell id="WIQYE3tA3X634Tk99d2Z-118" style="edgeStyle=orthogonalEdgeStyle;rounded=0;orthogonalLoop=1;jettySize=auto;html=1;entryX=1;entryY=0.5;entryDx=0;entryDy=0;" edge="1" parent="1" source="WIQYE3tA3X634Tk99d2Z-103" target="WIQYE3tA3X634Tk99d2Z-108">
          <mxGeometry relative="1" as="geometry" />
        </mxCell>
        <mxCell id="WIQYE3tA3X634Tk99d2Z-119" style="edgeStyle=orthogonalEdgeStyle;rounded=0;orthogonalLoop=1;jettySize=auto;html=1;exitX=0;exitY=0.5;exitDx=0;exitDy=0;entryX=1;entryY=0.25;entryDx=0;entryDy=0;" edge="1" parent="1" source="WIQYE3tA3X634Tk99d2Z-102" target="WIQYE3tA3X634Tk99d2Z-108">
          <mxGeometry relative="1" as="geometry" />
        </mxCell>
        <mxCell id="WIQYE3tA3X634Tk99d2Z-120" style="edgeStyle=orthogonalEdgeStyle;rounded=0;orthogonalLoop=1;jettySize=auto;html=1;strokeColor=#99FF99;" edge="1" parent="1" target="WIQYE3tA3X634Tk99d2Z-98">
          <mxGeometry relative="1" as="geometry">
            <Array as="points">
              <mxPoint x="320" y="1400" />
              <mxPoint x="-360" y="1400" />
            </Array>
            <mxPoint x="320.00000000000045" y="1390.0000000000002" as="sourcePoint" />
          </mxGeometry>
        </mxCell>
        <mxCell id="WIQYE3tA3X634Tk99d2Z-122" style="edgeStyle=orthogonalEdgeStyle;rounded=0;orthogonalLoop=1;jettySize=auto;html=1;exitX=0.5;exitY=1;exitDx=0;exitDy=0;" edge="1" parent="1" source="WIQYE3tA3X634Tk99d2Z-121" target="WIQYE3tA3X634Tk99d2Z-137">
          <mxGeometry relative="1" as="geometry" />
        </mxCell>
        <mxCell id="WIQYE3tA3X634Tk99d2Z-121" value="NM F5" style="rounded=1;whiteSpace=wrap;html=1;" vertex="1" parent="1">
          <mxGeometry x="430" y="1090" width="120" height="60" as="geometry" />
        </mxCell>
        <mxCell id="WIQYE3tA3X634Tk99d2Z-69" style="edgeStyle=orthogonalEdgeStyle;rounded=0;orthogonalLoop=1;jettySize=auto;html=1;exitX=0.5;exitY=1;exitDx=0;exitDy=0;entryX=0;entryY=0.25;entryDx=0;entryDy=0;strokeColor=#EA6B66;" edge="1" parent="1" source="WIQYE3tA3X634Tk99d2Z-141" target="WIQYE3tA3X634Tk99d2Z-63">
          <mxGeometry relative="1" as="geometry" />
        </mxCell>
        <mxCell id="WIQYE3tA3X634Tk99d2Z-68" style="edgeStyle=orthogonalEdgeStyle;rounded=0;orthogonalLoop=1;jettySize=auto;html=1;exitX=0.5;exitY=1;exitDx=0;exitDy=0;entryX=0.5;entryY=0;entryDx=0;entryDy=0;strokeColor=#EA6B66;" edge="1" parent="1" source="WIQYE3tA3X634Tk99d2Z-141" target="WIQYE3tA3X634Tk99d2Z-60">
          <mxGeometry relative="1" as="geometry">
            <Array as="points">
              <mxPoint x="1350" y="1440" />
              <mxPoint x="470" y="1440" />
            </Array>
          </mxGeometry>
        </mxCell>
        <mxCell id="WIQYE3tA3X634Tk99d2Z-89" style="edgeStyle=orthogonalEdgeStyle;rounded=0;orthogonalLoop=1;jettySize=auto;html=1;entryX=0;entryY=0.25;entryDx=0;entryDy=0;strokeColor=#EA6B66;exitX=0.5;exitY=1;exitDx=0;exitDy=0;" edge="1" parent="1" source="WIQYE3tA3X634Tk99d2Z-137" target="WIQYE3tA3X634Tk99d2Z-63">
          <mxGeometry relative="1" as="geometry">
            <Array as="points">
              <mxPoint x="1180" y="1470" />
              <mxPoint x="390" y="1470" />
              <mxPoint x="390" y="1565" />
            </Array>
          </mxGeometry>
        </mxCell>
        <mxCell id="WIQYE3tA3X634Tk99d2Z-162" style="edgeStyle=orthogonalEdgeStyle;rounded=0;orthogonalLoop=1;jettySize=auto;html=1;exitX=0.25;exitY=1;exitDx=0;exitDy=0;entryX=0.5;entryY=0;entryDx=0;entryDy=0;fillColor=#99FF99;strokeColor=#99FF99;" edge="1" parent="1" source="WIQYE3tA3X634Tk99d2Z-137" target="WIQYE3tA3X634Tk99d2Z-98">
          <mxGeometry relative="1" as="geometry">
            <Array as="points">
              <mxPoint x="1150" y="1400" />
              <mxPoint x="-360" y="1400" />
            </Array>
          </mxGeometry>
        </mxCell>
        <mxCell id="WIQYE3tA3X634Tk99d2Z-164" value="&lt;ol&gt;&lt;li&gt;搭建NM F5&lt;/li&gt;&lt;li&gt;搭建NM nginx&lt;/li&gt;&lt;li&gt;变更：域名&lt;span style=&quot;background-color: initial; text-align: center;&quot; class=&quot;n&quot;&gt;api&lt;/span&gt;&lt;span style=&quot;background-color: initial; text-align: center;&quot;&gt;.&lt;/span&gt;&lt;span style=&quot;background-color: initial; text-align: center;&quot; class=&quot;n&quot;&gt;unifiedcloud&lt;/span&gt;&lt;span style=&quot;background-color: initial; text-align: center;&quot;&gt;.&lt;/span&gt;&lt;span style=&quot;background-color: initial; text-align: center;&quot; class=&quot;n&quot;&gt;lenovo&lt;/span&gt;&lt;span style=&quot;background-color: initial; text-align: center;&quot;&gt;.&lt;/span&gt;&lt;span style=&quot;background-color: initial; text-align: center;&quot; class=&quot;n&quot;&gt;com指向NM F5&lt;/span&gt;&lt;/li&gt;&lt;li&gt;验证&lt;/li&gt;&lt;li&gt;回滚？&lt;/li&gt;&lt;/ol&gt;" style="text;html=1;align=left;verticalAlign=middle;whiteSpace=wrap;rounded=0;" vertex="1" parent="1">
          <mxGeometry x="720" y="971" width="530" height="119" as="geometry" />
        </mxCell>
      </root>
    </mxGraphModel>
  </diagram>
</mxfile>
